<mxfile host="app.diagrams.net" modified="2024-08-28T11:07:46.960Z" agent="Mozilla/5.0 (Windows NT 10.0; Win64; x64) AppleWebKit/537.36 (KHTML, like Gecko) Chrome/128.0.0.0 Safari/537.36" etag="LGFxEURE5CmLeDaTmEkf" version="24.2.7" type="device">
  <diagram id="R2lEEEUBdFMjLlhIrx00" name="Page-1">
    <mxGraphModel dx="1323" dy="1030" grid="1" gridSize="10" guides="1" tooltips="1" connect="1" arrows="1" fold="1" page="1" pageScale="1" pageWidth="850" pageHeight="1100" math="0" shadow="0" extFonts="Permanent Marker^https://fonts.googleapis.com/css?family=Permanent+Marker">
      <root>
        <mxCell id="0" />
        <mxCell id="1" parent="0" />
        <mxCell id="HPJpggYNY4r8gBy-OoRy-63" value="" style="ellipse;whiteSpace=wrap;html=1;" vertex="1" parent="1">
          <mxGeometry x="490" y="60" width="140" height="100" as="geometry" />
        </mxCell>
        <mxCell id="HPJpggYNY4r8gBy-OoRy-53" style="edgeStyle=orthogonalEdgeStyle;rounded=0;orthogonalLoop=1;jettySize=auto;html=1;entryX=0.5;entryY=0;entryDx=0;entryDy=0;endArrow=none;endFill=0;" edge="1" parent="1" source="HPJpggYNY4r8gBy-OoRy-1" target="HPJpggYNY4r8gBy-OoRy-64">
          <mxGeometry relative="1" as="geometry">
            <Array as="points">
              <mxPoint x="470" y="380" />
              <mxPoint x="470" y="380" />
            </Array>
          </mxGeometry>
        </mxCell>
        <mxCell id="HPJpggYNY4r8gBy-OoRy-1" value="&lt;font style=&quot;font-size: 24px;&quot;&gt;User&lt;/font&gt;" style="rounded=0;whiteSpace=wrap;html=1;" vertex="1" parent="1">
          <mxGeometry x="370" y="210" width="120" height="60" as="geometry" />
        </mxCell>
        <mxCell id="HPJpggYNY4r8gBy-OoRy-56" style="edgeStyle=orthogonalEdgeStyle;rounded=0;orthogonalLoop=1;jettySize=auto;html=1;endArrow=none;endFill=0;entryX=0.5;entryY=0;entryDx=0;entryDy=0;" edge="1" parent="1" source="HPJpggYNY4r8gBy-OoRy-2" target="HPJpggYNY4r8gBy-OoRy-71">
          <mxGeometry relative="1" as="geometry">
            <Array as="points">
              <mxPoint x="430" y="540" />
            </Array>
          </mxGeometry>
        </mxCell>
        <mxCell id="HPJpggYNY4r8gBy-OoRy-2" value="&lt;span style=&quot;font-size: 24px;&quot;&gt;Books&lt;/span&gt;" style="rounded=0;whiteSpace=wrap;html=1;" vertex="1" parent="1">
          <mxGeometry x="200" y="500" width="120" height="60" as="geometry" />
        </mxCell>
        <mxCell id="HPJpggYNY4r8gBy-OoRy-3" value="&lt;span style=&quot;font-size: 24px;&quot;&gt;Borrowing&lt;/span&gt;" style="rounded=0;whiteSpace=wrap;html=1;" vertex="1" parent="1">
          <mxGeometry x="550" y="470" width="120" height="60" as="geometry" />
        </mxCell>
        <mxCell id="HPJpggYNY4r8gBy-OoRy-43" style="rounded=0;orthogonalLoop=1;jettySize=auto;html=1;endArrow=none;endFill=0;" edge="1" parent="1" source="HPJpggYNY4r8gBy-OoRy-4" target="HPJpggYNY4r8gBy-OoRy-17">
          <mxGeometry relative="1" as="geometry" />
        </mxCell>
        <mxCell id="HPJpggYNY4r8gBy-OoRy-44" style="rounded=0;orthogonalLoop=1;jettySize=auto;html=1;endArrow=none;endFill=0;" edge="1" parent="1" source="HPJpggYNY4r8gBy-OoRy-4" target="HPJpggYNY4r8gBy-OoRy-18">
          <mxGeometry relative="1" as="geometry" />
        </mxCell>
        <mxCell id="HPJpggYNY4r8gBy-OoRy-45" style="rounded=0;orthogonalLoop=1;jettySize=auto;html=1;entryX=0;entryY=0;entryDx=0;entryDy=0;endArrow=none;endFill=0;" edge="1" parent="1" source="HPJpggYNY4r8gBy-OoRy-4" target="HPJpggYNY4r8gBy-OoRy-38">
          <mxGeometry relative="1" as="geometry" />
        </mxCell>
        <mxCell id="HPJpggYNY4r8gBy-OoRy-46" style="rounded=0;orthogonalLoop=1;jettySize=auto;html=1;endArrow=none;endFill=0;" edge="1" parent="1" source="HPJpggYNY4r8gBy-OoRy-4" target="HPJpggYNY4r8gBy-OoRy-37">
          <mxGeometry relative="1" as="geometry" />
        </mxCell>
        <mxCell id="HPJpggYNY4r8gBy-OoRy-4" value="&lt;span style=&quot;font-size: 24px;&quot;&gt;Inventory&lt;/span&gt;" style="rounded=0;whiteSpace=wrap;html=1;" vertex="1" parent="1">
          <mxGeometry x="520" y="840" width="120" height="60" as="geometry" />
        </mxCell>
        <mxCell id="HPJpggYNY4r8gBy-OoRy-28" style="rounded=0;orthogonalLoop=1;jettySize=auto;html=1;entryX=0;entryY=0.25;entryDx=0;entryDy=0;endArrow=none;endFill=0;" edge="1" parent="1" source="HPJpggYNY4r8gBy-OoRy-5" target="HPJpggYNY4r8gBy-OoRy-1">
          <mxGeometry relative="1" as="geometry" />
        </mxCell>
        <mxCell id="HPJpggYNY4r8gBy-OoRy-5" value="&lt;font style=&quot;font-size: 18px;&quot;&gt;User_Name&lt;/font&gt;" style="ellipse;whiteSpace=wrap;html=1;" vertex="1" parent="1">
          <mxGeometry x="150" y="150" width="120" height="80" as="geometry" />
        </mxCell>
        <mxCell id="HPJpggYNY4r8gBy-OoRy-30" style="rounded=0;orthogonalLoop=1;jettySize=auto;html=1;entryX=0.75;entryY=0;entryDx=0;entryDy=0;endArrow=none;endFill=0;" edge="1" parent="1" source="HPJpggYNY4r8gBy-OoRy-8" target="HPJpggYNY4r8gBy-OoRy-1">
          <mxGeometry relative="1" as="geometry" />
        </mxCell>
        <mxCell id="HPJpggYNY4r8gBy-OoRy-8" value="&lt;font style=&quot;font-size: 18px;&quot;&gt;Role&lt;/font&gt;" style="ellipse;whiteSpace=wrap;html=1;" vertex="1" parent="1">
          <mxGeometry x="500" y="70" width="120" height="80" as="geometry" />
        </mxCell>
        <mxCell id="HPJpggYNY4r8gBy-OoRy-47" style="rounded=0;orthogonalLoop=1;jettySize=auto;html=1;entryX=0.5;entryY=0;entryDx=0;entryDy=0;startArrow=none;startFill=0;endArrow=none;endFill=0;" edge="1" parent="1" source="HPJpggYNY4r8gBy-OoRy-10" target="HPJpggYNY4r8gBy-OoRy-3">
          <mxGeometry relative="1" as="geometry" />
        </mxCell>
        <mxCell id="HPJpggYNY4r8gBy-OoRy-10" value="&lt;font style=&quot;font-size: 18px;&quot;&gt;&lt;u&gt;Borrowing_id&lt;/u&gt;&lt;/font&gt;" style="ellipse;whiteSpace=wrap;html=1;" vertex="1" parent="1">
          <mxGeometry x="540" y="290" width="140" height="80" as="geometry" />
        </mxCell>
        <mxCell id="HPJpggYNY4r8gBy-OoRy-48" style="rounded=0;orthogonalLoop=1;jettySize=auto;html=1;entryX=0.75;entryY=0;entryDx=0;entryDy=0;startArrow=none;startFill=0;endArrow=none;endFill=0;" edge="1" parent="1" source="HPJpggYNY4r8gBy-OoRy-11" target="HPJpggYNY4r8gBy-OoRy-3">
          <mxGeometry relative="1" as="geometry" />
        </mxCell>
        <mxCell id="HPJpggYNY4r8gBy-OoRy-11" value="&lt;font style=&quot;font-size: 18px;&quot;&gt;User_ID&lt;/font&gt;" style="ellipse;whiteSpace=wrap;html=1;" vertex="1" parent="1">
          <mxGeometry x="690" y="330" width="120" height="80" as="geometry" />
        </mxCell>
        <mxCell id="HPJpggYNY4r8gBy-OoRy-49" style="rounded=0;orthogonalLoop=1;jettySize=auto;html=1;entryX=1;entryY=0.25;entryDx=0;entryDy=0;startArrow=none;startFill=0;endArrow=none;endFill=0;" edge="1" parent="1" source="HPJpggYNY4r8gBy-OoRy-12" target="HPJpggYNY4r8gBy-OoRy-3">
          <mxGeometry relative="1" as="geometry" />
        </mxCell>
        <mxCell id="HPJpggYNY4r8gBy-OoRy-12" value="&lt;font style=&quot;font-size: 18px;&quot;&gt;Book_ID&lt;/font&gt;" style="ellipse;whiteSpace=wrap;html=1;" vertex="1" parent="1">
          <mxGeometry x="700" y="420" width="120" height="80" as="geometry" />
        </mxCell>
        <mxCell id="HPJpggYNY4r8gBy-OoRy-19" style="rounded=0;orthogonalLoop=1;jettySize=auto;html=1;entryX=0;entryY=0.25;entryDx=0;entryDy=0;strokeColor=default;endArrow=none;endFill=0;" edge="1" parent="1" source="HPJpggYNY4r8gBy-OoRy-13" target="HPJpggYNY4r8gBy-OoRy-2">
          <mxGeometry relative="1" as="geometry" />
        </mxCell>
        <mxCell id="HPJpggYNY4r8gBy-OoRy-13" value="&lt;font style=&quot;font-size: 18px;&quot;&gt;&lt;u&gt;Book ID&lt;/u&gt;&lt;/font&gt;" style="ellipse;whiteSpace=wrap;html=1;" vertex="1" parent="1">
          <mxGeometry x="20" y="410" width="120" height="80" as="geometry" />
        </mxCell>
        <mxCell id="HPJpggYNY4r8gBy-OoRy-20" style="rounded=0;orthogonalLoop=1;jettySize=auto;html=1;entryX=0;entryY=0.75;entryDx=0;entryDy=0;endArrow=none;endFill=0;" edge="1" parent="1" source="HPJpggYNY4r8gBy-OoRy-14" target="HPJpggYNY4r8gBy-OoRy-2">
          <mxGeometry relative="1" as="geometry" />
        </mxCell>
        <mxCell id="HPJpggYNY4r8gBy-OoRy-14" value="&lt;font style=&quot;font-size: 18px;&quot;&gt;Book_Category&lt;/font&gt;" style="ellipse;whiteSpace=wrap;html=1;" vertex="1" parent="1">
          <mxGeometry x="10" y="520" width="140" height="80" as="geometry" />
        </mxCell>
        <mxCell id="HPJpggYNY4r8gBy-OoRy-22" style="rounded=0;orthogonalLoop=1;jettySize=auto;html=1;endArrow=none;endFill=0;" edge="1" parent="1" source="HPJpggYNY4r8gBy-OoRy-15">
          <mxGeometry relative="1" as="geometry">
            <mxPoint x="260" y="560" as="targetPoint" />
          </mxGeometry>
        </mxCell>
        <mxCell id="HPJpggYNY4r8gBy-OoRy-15" value="&lt;font style=&quot;font-size: 18px;&quot;&gt;Book_Publisher&lt;/font&gt;" style="ellipse;whiteSpace=wrap;html=1;" vertex="1" parent="1">
          <mxGeometry x="135" y="700" width="150" height="80" as="geometry" />
        </mxCell>
        <mxCell id="HPJpggYNY4r8gBy-OoRy-16" value="&lt;span style=&quot;font-size: 18px;&quot;&gt;Book_Author&lt;/span&gt;" style="ellipse;whiteSpace=wrap;html=1;" vertex="1" parent="1">
          <mxGeometry x="60" y="610" width="120" height="80" as="geometry" />
        </mxCell>
        <mxCell id="HPJpggYNY4r8gBy-OoRy-17" value="&lt;font style=&quot;font-size: 18px;&quot;&gt;Book_ID&lt;/font&gt;" style="ellipse;whiteSpace=wrap;html=1;" vertex="1" parent="1">
          <mxGeometry x="395" y="930" width="120" height="80" as="geometry" />
        </mxCell>
        <mxCell id="HPJpggYNY4r8gBy-OoRy-18" value="&lt;font style=&quot;font-size: 18px;&quot;&gt;&lt;u&gt;Inventry_ID&lt;/u&gt;&lt;/font&gt;" style="ellipse;whiteSpace=wrap;html=1;" vertex="1" parent="1">
          <mxGeometry x="520" y="970" width="120" height="80" as="geometry" />
        </mxCell>
        <mxCell id="HPJpggYNY4r8gBy-OoRy-21" style="rounded=0;orthogonalLoop=1;jettySize=auto;html=1;entryX=0.169;entryY=1.028;entryDx=0;entryDy=0;entryPerimeter=0;endArrow=none;endFill=0;" edge="1" parent="1" source="HPJpggYNY4r8gBy-OoRy-16" target="HPJpggYNY4r8gBy-OoRy-2">
          <mxGeometry relative="1" as="geometry" />
        </mxCell>
        <mxCell id="HPJpggYNY4r8gBy-OoRy-27" style="rounded=0;orthogonalLoop=1;jettySize=auto;html=1;entryX=0;entryY=0.75;entryDx=0;entryDy=0;endArrow=none;endFill=0;" edge="1" parent="1" source="HPJpggYNY4r8gBy-OoRy-23" target="HPJpggYNY4r8gBy-OoRy-1">
          <mxGeometry relative="1" as="geometry" />
        </mxCell>
        <mxCell id="HPJpggYNY4r8gBy-OoRy-23" value="&lt;font style=&quot;font-size: 18px;&quot;&gt;&lt;u&gt;User ID&lt;/u&gt;&lt;/font&gt;" style="ellipse;whiteSpace=wrap;html=1;" vertex="1" parent="1">
          <mxGeometry x="190" y="250" width="120" height="80" as="geometry" />
        </mxCell>
        <mxCell id="HPJpggYNY4r8gBy-OoRy-31" style="rounded=0;orthogonalLoop=1;jettySize=auto;html=1;entryX=0;entryY=0;entryDx=0;entryDy=0;endArrow=none;endFill=0;" edge="1" parent="1" source="HPJpggYNY4r8gBy-OoRy-24" target="HPJpggYNY4r8gBy-OoRy-1">
          <mxGeometry relative="1" as="geometry" />
        </mxCell>
        <mxCell id="HPJpggYNY4r8gBy-OoRy-24" value="&lt;font style=&quot;font-size: 18px;&quot;&gt;User_Email&lt;/font&gt;" style="ellipse;whiteSpace=wrap;html=1;" vertex="1" parent="1">
          <mxGeometry x="170" y="50" width="120" height="80" as="geometry" />
        </mxCell>
        <mxCell id="HPJpggYNY4r8gBy-OoRy-29" style="rounded=0;orthogonalLoop=1;jettySize=auto;html=1;entryX=0.25;entryY=0;entryDx=0;entryDy=0;endArrow=none;endFill=0;" edge="1" parent="1" source="HPJpggYNY4r8gBy-OoRy-25" target="HPJpggYNY4r8gBy-OoRy-1">
          <mxGeometry relative="1" as="geometry" />
        </mxCell>
        <mxCell id="HPJpggYNY4r8gBy-OoRy-25" value="&lt;font style=&quot;font-size: 18px;&quot;&gt;User_Password&lt;/font&gt;" style="ellipse;whiteSpace=wrap;html=1;" vertex="1" parent="1">
          <mxGeometry x="310" y="30" width="170" height="80" as="geometry" />
        </mxCell>
        <mxCell id="HPJpggYNY4r8gBy-OoRy-32" value="&lt;font style=&quot;font-size: 18px;&quot;&gt;Book_Title&lt;/font&gt;" style="ellipse;whiteSpace=wrap;html=1;" vertex="1" parent="1">
          <mxGeometry x="120" y="350" width="120" height="80" as="geometry" />
        </mxCell>
        <mxCell id="HPJpggYNY4r8gBy-OoRy-35" value="" style="rounded=0;orthogonalLoop=1;jettySize=auto;html=1;endArrow=none;endFill=0;" edge="1" parent="1" source="HPJpggYNY4r8gBy-OoRy-33" target="HPJpggYNY4r8gBy-OoRy-2">
          <mxGeometry relative="1" as="geometry" />
        </mxCell>
        <mxCell id="HPJpggYNY4r8gBy-OoRy-33" value="&lt;font style=&quot;font-size: 18px;&quot;&gt;Isbn&lt;/font&gt;" style="ellipse;whiteSpace=wrap;html=1;" vertex="1" parent="1">
          <mxGeometry x="240" y="350" width="120" height="80" as="geometry" />
        </mxCell>
        <mxCell id="HPJpggYNY4r8gBy-OoRy-34" style="rounded=0;orthogonalLoop=1;jettySize=auto;html=1;entryX=0.25;entryY=0;entryDx=0;entryDy=0;endArrow=none;endFill=0;" edge="1" parent="1" source="HPJpggYNY4r8gBy-OoRy-32" target="HPJpggYNY4r8gBy-OoRy-2">
          <mxGeometry relative="1" as="geometry" />
        </mxCell>
        <mxCell id="HPJpggYNY4r8gBy-OoRy-37" value="&lt;font style=&quot;font-size: 18px;&quot;&gt;Quantity&lt;/font&gt;" style="ellipse;whiteSpace=wrap;html=1;" vertex="1" parent="1">
          <mxGeometry x="685" y="850" width="120" height="80" as="geometry" />
        </mxCell>
        <mxCell id="HPJpggYNY4r8gBy-OoRy-38" value="&lt;font style=&quot;font-size: 18px;&quot;&gt;Condition&lt;/font&gt;" style="ellipse;whiteSpace=wrap;html=1;" vertex="1" parent="1">
          <mxGeometry x="655" y="940" width="120" height="80" as="geometry" />
        </mxCell>
        <mxCell id="HPJpggYNY4r8gBy-OoRy-39" value="&lt;font style=&quot;font-size: 18px;&quot;&gt;Book_ID&lt;/font&gt;" style="ellipse;whiteSpace=wrap;html=1;" vertex="1" parent="1">
          <mxGeometry x="710" y="510" width="120" height="80" as="geometry" />
        </mxCell>
        <mxCell id="HPJpggYNY4r8gBy-OoRy-51" style="rounded=0;orthogonalLoop=1;jettySize=auto;html=1;entryX=0.75;entryY=1;entryDx=0;entryDy=0;startArrow=none;startFill=0;endArrow=none;endFill=0;" edge="1" parent="1" source="HPJpggYNY4r8gBy-OoRy-40" target="HPJpggYNY4r8gBy-OoRy-3">
          <mxGeometry relative="1" as="geometry" />
        </mxCell>
        <mxCell id="HPJpggYNY4r8gBy-OoRy-40" value="&lt;font style=&quot;font-size: 18px;&quot;&gt;Book_ID&lt;/font&gt;" style="ellipse;whiteSpace=wrap;html=1;" vertex="1" parent="1">
          <mxGeometry x="700" y="600" width="120" height="80" as="geometry" />
        </mxCell>
        <mxCell id="HPJpggYNY4r8gBy-OoRy-41" value="&lt;font style=&quot;font-size: 18px;&quot;&gt;Book_ID&lt;/font&gt;" style="ellipse;whiteSpace=wrap;html=1;" vertex="1" parent="1">
          <mxGeometry x="570" y="640" width="120" height="80" as="geometry" />
        </mxCell>
        <mxCell id="HPJpggYNY4r8gBy-OoRy-50" style="rounded=0;orthogonalLoop=1;jettySize=auto;html=1;entryX=0.892;entryY=1.028;entryDx=0;entryDy=0;entryPerimeter=0;startArrow=none;startFill=0;endArrow=none;endFill=0;" edge="1" parent="1" source="HPJpggYNY4r8gBy-OoRy-39" target="HPJpggYNY4r8gBy-OoRy-3">
          <mxGeometry relative="1" as="geometry" />
        </mxCell>
        <mxCell id="HPJpggYNY4r8gBy-OoRy-52" style="rounded=0;orthogonalLoop=1;jettySize=auto;html=1;entryX=0.669;entryY=0.972;entryDx=0;entryDy=0;entryPerimeter=0;startArrow=none;startFill=0;endArrow=none;endFill=0;" edge="1" parent="1" source="HPJpggYNY4r8gBy-OoRy-41" target="HPJpggYNY4r8gBy-OoRy-3">
          <mxGeometry relative="1" as="geometry" />
        </mxCell>
        <mxCell id="HPJpggYNY4r8gBy-OoRy-54" value="&lt;font style=&quot;font-size: 24px;&quot;&gt;1&lt;/font&gt;" style="text;html=1;align=center;verticalAlign=middle;whiteSpace=wrap;rounded=0;" vertex="1" parent="1">
          <mxGeometry x="470" y="280" width="60" height="30" as="geometry" />
        </mxCell>
        <mxCell id="HPJpggYNY4r8gBy-OoRy-55" value="&lt;font style=&quot;font-size: 36px;&quot;&gt;&lt;b style=&quot;&quot;&gt;*&lt;/b&gt;&lt;/font&gt;" style="text;html=1;align=center;verticalAlign=middle;whiteSpace=wrap;rounded=0;" vertex="1" parent="1">
          <mxGeometry x="500" y="490" width="60" height="30" as="geometry" />
        </mxCell>
        <mxCell id="HPJpggYNY4r8gBy-OoRy-58" value="&lt;font style=&quot;font-size: 24px;&quot;&gt;1&lt;/font&gt;" style="text;html=1;align=center;verticalAlign=middle;whiteSpace=wrap;rounded=0;" vertex="1" parent="1">
          <mxGeometry x="320" y="500" width="60" height="30" as="geometry" />
        </mxCell>
        <mxCell id="HPJpggYNY4r8gBy-OoRy-59" value="&lt;font style=&quot;font-size: 36px;&quot;&gt;&lt;b style=&quot;&quot;&gt;*&lt;/b&gt;&lt;/font&gt;" style="text;html=1;align=center;verticalAlign=middle;whiteSpace=wrap;rounded=0;" vertex="1" parent="1">
          <mxGeometry x="570" y="550" width="60" height="30" as="geometry" />
        </mxCell>
        <mxCell id="HPJpggYNY4r8gBy-OoRy-60" value="&lt;font style=&quot;font-size: 24px;&quot;&gt;1&lt;/font&gt;" style="text;html=1;align=center;verticalAlign=middle;whiteSpace=wrap;rounded=0;" vertex="1" parent="1">
          <mxGeometry x="280" y="570" width="60" height="30" as="geometry" />
        </mxCell>
        <mxCell id="HPJpggYNY4r8gBy-OoRy-61" value="&lt;font style=&quot;font-size: 24px;&quot;&gt;1&lt;/font&gt;" style="text;html=1;align=center;verticalAlign=middle;whiteSpace=wrap;rounded=0;" vertex="1" parent="1">
          <mxGeometry x="465" y="830" width="60" height="30" as="geometry" />
        </mxCell>
        <mxCell id="HPJpggYNY4r8gBy-OoRy-66" style="edgeStyle=orthogonalEdgeStyle;rounded=0;orthogonalLoop=1;jettySize=auto;html=1;entryX=0;entryY=0.25;entryDx=0;entryDy=0;endArrow=none;endFill=0;" edge="1" parent="1" source="HPJpggYNY4r8gBy-OoRy-64" target="HPJpggYNY4r8gBy-OoRy-3">
          <mxGeometry relative="1" as="geometry">
            <Array as="points">
              <mxPoint x="470" y="485" />
            </Array>
          </mxGeometry>
        </mxCell>
        <mxCell id="HPJpggYNY4r8gBy-OoRy-64" value="&lt;font style=&quot;font-size: 18px;&quot;&gt;Borrows&lt;/font&gt;" style="rhombus;whiteSpace=wrap;html=1;" vertex="1" parent="1">
          <mxGeometry x="420" y="350" width="100" height="100" as="geometry" />
        </mxCell>
        <mxCell id="HPJpggYNY4r8gBy-OoRy-68" value="" style="edgeStyle=orthogonalEdgeStyle;rounded=0;orthogonalLoop=1;jettySize=auto;html=1;endArrow=none;endFill=0;" edge="1" parent="1" source="HPJpggYNY4r8gBy-OoRy-2" target="HPJpggYNY4r8gBy-OoRy-67">
          <mxGeometry relative="1" as="geometry">
            <mxPoint x="320" y="560" as="sourcePoint" />
            <mxPoint x="430" y="780" as="targetPoint" />
            <Array as="points">
              <mxPoint x="290" y="780" />
            </Array>
          </mxGeometry>
        </mxCell>
        <mxCell id="HPJpggYNY4r8gBy-OoRy-70" style="edgeStyle=orthogonalEdgeStyle;rounded=0;orthogonalLoop=1;jettySize=auto;html=1;entryX=0;entryY=0.5;entryDx=0;entryDy=0;endArrow=none;endFill=0;" edge="1" parent="1" source="HPJpggYNY4r8gBy-OoRy-67" target="HPJpggYNY4r8gBy-OoRy-4">
          <mxGeometry relative="1" as="geometry" />
        </mxCell>
        <mxCell id="HPJpggYNY4r8gBy-OoRy-67" value="&lt;font style=&quot;font-size: 18px;&quot;&gt;Store&lt;/font&gt;" style="rhombus;whiteSpace=wrap;html=1;" vertex="1" parent="1">
          <mxGeometry x="325" y="730" width="100" height="100" as="geometry" />
        </mxCell>
        <mxCell id="HPJpggYNY4r8gBy-OoRy-71" value="&lt;font style=&quot;font-size: 18px;&quot;&gt;is Borrows&lt;/font&gt;" style="rhombus;whiteSpace=wrap;html=1;" vertex="1" parent="1">
          <mxGeometry x="370" y="490" width="110" height="100" as="geometry" />
        </mxCell>
        <mxCell id="HPJpggYNY4r8gBy-OoRy-72" style="edgeStyle=orthogonalEdgeStyle;rounded=0;orthogonalLoop=1;jettySize=auto;html=1;entryX=0.406;entryY=1;entryDx=0;entryDy=0;entryPerimeter=0;endArrow=none;endFill=0;" edge="1" parent="1" source="HPJpggYNY4r8gBy-OoRy-71" target="HPJpggYNY4r8gBy-OoRy-3">
          <mxGeometry relative="1" as="geometry">
            <Array as="points">
              <mxPoint x="599" y="540" />
            </Array>
          </mxGeometry>
        </mxCell>
      </root>
    </mxGraphModel>
  </diagram>
</mxfile>
